ffmpeg started on 2025-06-27 at 10:19:45
Report written to "D:\Convert\FFMetrics\reports\psnr_report-6.txt"
Log level: 32
Command line:
ffmpeg -hide_banner -nostdin -i "G:\\\xc0\xed\xe8\xec\xe5\\[\xd2\xee\xef-4]\\\xd2\xee\xea\xe8\xe9\xf1\xea\xe8\xe9 \xc3\xf3\xeb\xfc\\\xd2\xc2-4\\Tokyo_Ghoul_Re_[13]_[AniLibria_TV]_[HDTVRip_720p]_HEVC.mkv" -i "G:\\\xc0\xed\xe8\xec\xe5\\[\xd2\xee\xef-4]\\\xd2\xee\xea\xe8\xe9\xf1\xea\xe8\xe9 \xc3\xf3\xeb\xfc\\\xd2\xc2-4\\Tokyo_Ghoul_Re_[13]_[AniLibria_TV]_[HDTVRip_720p].mkv" -lavfi "[0:v]settb=AVTB,setpts=PTS-STARTPTS,format=pix_fmts=yuv420p10,fps=24000/1001,scale=1280:720:flags=bicubic[main];[1:v]settb=AVTB,setpts=PTS-STARTPTS,format=pix_fmts=yuv420p,fps=24000/1001,scale=1280:720:flags=bicubic[ref];[main][ref]psnr=eof_action=endall:stats_file='D\\:/Convert/FFMetrics/logs/psnr_logfile-6.txt'" -f null -
Input #0, matroska,webm, from 'G:\Аниме\[Топ-4]\Токийский Гуль\ТВ-4\Tokyo_Ghoul_Re_[13]_[AniLibria_TV]_[HDTVRip_720p]_HEVC.mkv':
  Metadata:
    ENCODER         : Lavf61.7.100
  Duration: 00:24:30.10, start: -0.021000, bitrate: 576 kb/s
  Stream #0:0(jpn): Video: hevc (Main 10), yuv420p10le(tv, bt709, progressive), 1280x720 [SAR 1:1 DAR 16:9], 23.98 fps, 23.98 tbr, 1k tbn (default)
      Metadata:
        ENCODER         : Lavc61.19.100 libx265
        BPS             : 378752
        DURATION        : 00:24:29.968708333
        NUMBER_OF_FRAMES: 35244
        NUMBER_OF_BYTES : 69594238
        _STATISTICS_WRITING_APP: mkvpropedit v66.0.0 ('Josie') 64-bit
        _STATISTICS_WRITING_DATE_UTC: 2025-06-26 15:05:51
        _STATISTICS_TAGS: BPS DURATION NUMBER_OF_FRAMES NUMBER_OF_BYTES
  Stream #0:1(rus): Audio: aac (LC), 48000 Hz, stereo, fltp (default) (forced)
      Metadata:
        title           : AniLibria.TV
        ENCODER         : Lavc61.19.100 aac
        BPS             : 193697
        DURATION        : 00:24:30.080000000
        NUMBER_OF_FRAMES: 68911
        NUMBER_OF_BYTES : 35593825
        _STATISTICS_WRITING_APP: mkvpropedit v66.0.0 ('Josie') 64-bit
        _STATISTICS_WRITING_DATE_UTC: 2025-06-26 15:05:51
        _STATISTICS_TAGS: BPS DURATION NUMBER_OF_FRAMES NUMBER_OF_BYTES
  Stream #0:2(rus): Subtitle: ass (ssa) (default) (forced)
      Metadata:
        title           : Надписи
        BPS             : 47
        DURATION        : 00:21:25.710000000
        NUMBER_OF_FRAMES: 42
        NUMBER_OF_BYTES : 7674
        _STATISTICS_WRITING_APP: mkvpropedit v66.0.0 ('Josie') 64-bit
        _STATISTICS_WRITING_DATE_UTC: 2025-06-26 15:05:51
        _STATISTICS_TAGS: BPS DURATION NUMBER_OF_FRAMES NUMBER_OF_BYTES
  Stream #0:3(rus): Subtitle: ass (ssa)
      Metadata:
        title           : Полные
        BPS             : 138
        DURATION        : 00:24:10.150000000
        NUMBER_OF_FRAMES: 271
        NUMBER_OF_BYTES : 25094
        _STATISTICS_WRITING_APP: mkvpropedit v66.0.0 ('Josie') 64-bit
        _STATISTICS_WRITING_DATE_UTC: 2025-06-26 15:05:51
        _STATISTICS_TAGS: BPS DURATION NUMBER_OF_FRAMES NUMBER_OF_BYTES
[matroska,webm @ 000001e854436f80] Could not find codec parameters for stream 15 (Attachment: none): unknown codec
Consider increasing the value for the 'analyzeduration' (0) and 'probesize' (5000000) options
Input #1, matroska,webm, from 'G:\Аниме\[Топ-4]\Токийский Гуль\ТВ-4\Tokyo_Ghoul_Re_[13]_[AniLibria_TV]_[HDTVRip_720p].mkv':
  Metadata:
    encoder         : libebml v1.4.2 + libmatroska v1.6.4
    creation_time   : 2024-12-27T09:47:52.000000Z
  Duration: 00:24:30.08, start: 0.000000, bitrate: 1770 kb/s
  Stream #1:0(jpn): Video: h264 (Main), yuv420p(tv, bt709, progressive), 1280x720, SAR 1:1 DAR 16:9, 23.98 fps, 23.98 tbr, 1k tbn (default)
      Metadata:
        BPS             : 1565839
        DURATION        : 00:24:29.969000000
        NUMBER_OF_FRAMES: 35244
        NUMBER_OF_BYTES : 287717009
        _STATISTICS_WRITING_APP: mkvmerge v66.0.0 ('Josie') 64-bit
        _STATISTICS_WRITING_DATE_UTC: 2024-12-27 09:47:52
        _STATISTICS_TAGS: BPS DURATION NUMBER_OF_FRAMES NUMBER_OF_BYTES
  Stream #1:1(rus): Audio: aac (LC), 48000 Hz, stereo, fltp (default) (forced)
      Metadata:
        title           : AniLibria.TV
        BPS             : 192093
        DURATION        : 00:24:30.080000000
        NUMBER_OF_FRAMES: 68910
        NUMBER_OF_BYTES : 35299067
        _STATISTICS_WRITING_APP: mkvmerge v66.0.0 ('Josie') 64-bit
        _STATISTICS_WRITING_DATE_UTC: 2024-12-27 09:47:52
        _STATISTICS_TAGS: BPS DURATION NUMBER_OF_FRAMES NUMBER_OF_BYTES
  Stream #1:2(rus): Subtitle: ass (ssa) (default) (forced)
      Metadata:
        title           : Надписи
        BPS             : 47
        DURATION        : 00:21:25.710000000
        NUMBER_OF_FRAMES: 42
        NUMBER_OF_BYTES : 7674
        _STATISTICS_WRITING_APP: mkvmerge v66.0.0 ('Josie') 64-bit
        _STATISTICS_WRITING_DATE_UTC: 2024-12-27 09:47:52
        _STATISTICS_TAGS: BPS DURATION NUMBER_OF_FRAMES NUMBER_OF_BYTES
  Stream #1:3(rus): Subtitle: ass (ssa)
      Metadata:
        title           : Полные
        BPS             : 138
        DURATION        : 00:24:10.150000000
        NUMBER_OF_FRAMES: 271
        NUMBER_OF_BYTES : 25094
        _STATISTICS_WRITING_APP: mkvmerge v66.0.0 ('Josie') 64-bit
        _STATISTICS_WRITING_DATE_UTC: 2024-12-27 09:47:52
        _STATISTICS_TAGS: BPS DURATION NUMBER_OF_FRAMES NUMBER_OF_BYTES
  Stream #1:4: Attachment: ttf
      Metadata:
        filename        : 10322__2.ttf
        mimetype        : application/x-truetype-font
  Stream #1:5: Attachment: ttf
      Metadata:
        filename        : 10352__0.ttf
        mimetype        : application/x-truetype-font
  Stream #1:6: Attachment: ttf
      Metadata:
        filename        : Aero Matics Display Bold Italic.ttf
        mimetype        : application/x-truetype-font
  Stream #1:7: Attachment: ttf
      Metadata:
        filename        : Aero Matics Display Bold.ttf
        mimetype        : application/x-truetype-font
  Stream #1:8: Attachment: ttf
      Metadata:
        filename        : Aero Matics Display Italic.ttf
        mimetype        : application/x-truetype-font
  Stream #1:9: Attachment: ttf
      Metadata:
        filename        : Aero Matics Display Light Italic.ttf
        mimetype        : application/x-truetype-font
  Stream #1:10: Attachment: ttf
      Metadata:
        filename        : Aero Matics Display Light.ttf
        mimetype        : application/x-truetype-font
  Stream #1:11: Attachment: ttf
      Metadata:
        filename        : Aero_Matics_Display_Regular.ttf
        mimetype        : application/x-truetype-font
  Stream #1:12: Attachment: ttf
      Metadata:
        filename        : BenchNine-Regular.ttf
        mimetype        : application/x-truetype-font
  Stream #1:13: Attachment: ttf
      Metadata:
        filename        : OpenSanA.ttf
        mimetype        : application/x-truetype-font
  Stream #1:14: Attachment: ttf
      Metadata:
        filename        : REDOCTOB.otf
        mimetype        : application/x-truetype-font
  Stream #1:15: Attachment: none
      Metadata:
        filename        : simsun_0.ttc
        mimetype        : application/octet-stream
  Stream #1:16: Attachment: ttf
      Metadata:
        filename        : Snowstorm.ttf
        mimetype        : application/x-truetype-font
  Stream #1:17: Attachment: ttf
      Metadata:
        filename        : TEMPSITC.TTF
        mimetype        : application/x-truetype-font
  Stream #1:18: Attachment: ttf
      Metadata:
        filename        : TrajanPro3-Bold.otf
        mimetype        : application/x-truetype-font
  Stream #1:19: Attachment: ttf
      Metadata:
        filename        : TrajanPro3-Regular.otf
        mimetype        : application/x-truetype-font
  Stream #1:20: Attachment: ttf
      Metadata:
        filename        : v_CCTimSale_v1.11.ttf
        mimetype        : application/x-truetype-font
  Stream #1:21: Attachment: ttf
      Metadata:
        filename        : v_HolyMackerelli_v1.9.ttf
        mimetype        : application/x-truetype-font
  Stream #1:22: Attachment: ttf
      Metadata:
        filename        : v_StraightJacketBB_v1.1.ttf
        mimetype        : application/x-truetype-font
  Stream #1:23: Attachment: ttf
      Metadata:
        filename        : XENI.TTF
        mimetype        : application/x-truetype-font
Stream mapping:
  Stream #0:0 (hevc) -> settb:default
  Stream #1:0 (h264) -> settb:default
  psnr:default -> Stream #0:0 (wrapped_avframe)
  Stream #0:1 -> #0:1 (aac (native) -> pcm_s16le (native))
Output #0, null, to 'pipe:':
  Metadata:
    encoder         : Lavf61.7.100
  Stream #0:0: Video: wrapped_avframe, yuv420p10le(tv, bt709, progressive), 1280x720 [SAR 1:1 DAR 16:9], q=2-31, 200 kb/s, 23.98 fps, 23.98 tbn
      Metadata:
        encoder         : Lavc61.19.100 wrapped_avframe
  Stream #0:1(rus): Audio: pcm_s16le, 48000 Hz, stereo, s16, 1536 kb/s (default) (forced)
      Metadata:
        title           : AniLibria.TV
        _STATISTICS_TAGS: BPS DURATION NUMBER_OF_FRAMES NUMBER_OF_BYTES
        BPS             : 193697
        DURATION        : 00:24:30.080000000
        NUMBER_OF_FRAMES: 68911
        NUMBER_OF_BYTES : 35593825
        _STATISTICS_WRITING_APP: mkvpropedit v66.0.0 ('Josie') 64-bit
        _STATISTICS_WRITING_DATE_UTC: 2025-06-26 15:05:51
        encoder         : Lavc61.19.100 pcm_s16le
frame=  480 fps=0.0 q=-0.0 size=N/A time=00:00:20.02 bitrate=N/A speed=38.1x    frame=  954 fps=916 q=-0.0 size=N/A time=00:00:39.78 bitrate=N/A speed=38.2x    frame= 1321 fps=849 q=-0.0 size=N/A time=00:00:55.09 bitrate=N/A speed=35.4x    frame= 1846 fps=893 q=-0.0 size=N/A time=00:01:16.99 bitrate=N/A speed=37.2x    frame= 2363 fps=915 q=-0.0 size=N/A time=00:01:38.55 bitrate=N/A speed=38.2x    frame= 2897 fps=936 q=-0.0 size=N/A time=00:02:00.82 bitrate=N/A speed=  39x    frame= 3473 fps=962 q=-0.0 size=N/A time=00:02:24.85 bitrate=N/A speed=40.1x    frame= 4021 fps=974 q=-0.0 size=N/A time=00:02:47.70 bitrate=N/A speed=40.6x    frame= 4443 fps=956 q=-0.0 size=N/A time=00:03:05.31 bitrate=N/A speed=39.9x    frame= 4810 fps=933 q=-0.0 size=N/A time=00:03:20.61 bitrate=N/A speed=38.9x    frame= 5249 fps=923 q=-0.0 size=N/A time=00:03:38.92 bitrate=N/A speed=38.5x    frame= 5739 fps=926 q=-0.0 size=N/A time=00:03:59.36 bitrate=N/A speed=38.6x    frame= 6270 fps=935 q=-0.0 size=N/A time=00:04:21.51 bitrate=N/A speed=  39x    frame= 6868 fps=952 q=-0.0 size=N/A time=00:04:46.45 bitrate=N/A speed=39.7x    frame= 7414 fps=958 q=-0.0 size=N/A time=00:05:09.22 bitrate=N/A speed=  40x    frame= 7964 fps=965 q=-0.0 size=N/A time=00:05:32.16 bitrate=N/A speed=40.2x    frame= 8447 fps=963 q=-0.0 size=N/A time=00:05:52.31 bitrate=N/A speed=40.2x    frame= 8811 fps=949 q=-0.0 size=N/A time=00:06:07.49 bitrate=N/A speed=39.6x    frame= 9345 fps=953 q=-0.0 size=N/A time=00:06:29.76 bitrate=N/A speed=39.8x    frame= 9856 fps=956 q=-0.0 size=N/A time=00:06:51.07 bitrate=N/A speed=39.9x    frame=10387 fps=959 q=-0.0 size=N/A time=00:07:13.22 bitrate=N/A speed=  40x    frame=11034 fps=972 q=-0.0 size=N/A time=00:07:40.20 bitrate=N/A speed=40.5x    frame=11613 fps=978 q=-0.0 size=N/A time=00:08:04.35 bitrate=N/A speed=40.8x    frame=12202 fps=985 q=-0.0 size=N/A time=00:08:28.92 bitrate=N/A speed=41.1x    frame=12786 fps=990 q=-0.0 size=N/A time=00:08:53.28 bitrate=N/A speed=41.3x    frame=13365 fps=995 q=-0.0 size=N/A time=00:09:17.43 bitrate=N/A speed=41.5x    frame=13799 fps=989 q=-0.0 size=N/A time=00:09:35.53 bitrate=N/A speed=41.3x    frame=14294 fps=988 q=-0.0 size=N/A time=00:09:56.17 bitrate=N/A speed=41.2x    frame=14779 fps=987 q=-0.0 size=N/A time=00:10:16.40 bitrate=N/A speed=41.2x    frame=15394 fps=994 q=-0.0 size=N/A time=00:10:42.05 bitrate=N/A speed=41.5x    frame=15994 fps=999 q=-0.0 size=N/A time=00:11:07.08 bitrate=N/A speed=41.7x    frame=16428 fps=995 q=-0.0 size=N/A time=00:11:25.18 bitrate=N/A speed=41.5x    frame=16949 fps=995 q=-0.0 size=N/A time=00:11:46.91 bitrate=N/A speed=41.5x    frame=17531 fps=999 q=-0.0 size=N/A time=00:12:11.18 bitrate=N/A speed=41.6x    frame=18153 fps=1005 q=-0.0 size=N/A time=00:12:37.13 bitrate=N/A speed=41.9x    frame=18719 fps=1007 q=-0.0 size=N/A time=00:13:00.73 bitrate=N/A speed=  42x    frame=19315 fps=1011 q=-0.0 size=N/A time=00:13:25.59 bitrate=N/A speed=42.2x    frame=19854 fps=1012 q=-0.0 size=N/A time=00:13:48.07 bitrate=N/A speed=42.2x    frame=20338 fps=1010 q=-0.0 size=N/A time=00:14:08.26 bitrate=N/A speed=42.1x    frame=20892 fps=1012 q=-0.0 size=N/A time=00:14:31.37 bitrate=N/A speed=42.2x    frame=21428 fps=1013 q=-0.0 size=N/A time=00:14:53.72 bitrate=N/A speed=42.2x    frame=21968 fps=1013 q=-0.0 size=N/A time=00:15:16.24 bitrate=N/A speed=42.3x    frame=22438 fps=1011 q=-0.0 size=N/A time=00:15:35.85 bitrate=N/A speed=42.2x    frame=22770 fps=1003 q=-0.0 size=N/A time=00:15:49.69 bitrate=N/A speed=41.8x    frame=23280 fps=1003 q=-0.0 size=N/A time=00:16:10.97 bitrate=N/A speed=41.8x    frame=23723 fps=999 q=-0.0 size=N/A time=00:16:29.44 bitrate=N/A speed=41.7x    frame=24283 fps=1001 q=-0.0 size=N/A time=00:16:52.80 bitrate=N/A speed=41.8x    frame=24910 fps=1005 q=-0.0 size=N/A time=00:17:18.95 bitrate=N/A speed=41.9x    frame=25508 fps=1009 q=-0.0 size=N/A time=00:17:43.89 bitrate=N/A speed=42.1x    frame=26110 fps=1012 q=-0.0 size=N/A time=00:18:09.00 bitrate=N/A speed=42.2x    frame=26660 fps=1013 q=-0.0 size=N/A time=00:18:31.94 bitrate=N/A speed=42.2x    frame=27199 fps=1014 q=-0.0 size=N/A time=00:18:54.42 bitrate=N/A speed=42.3x    frame=27759 fps=1015 q=-0.0 size=N/A time=00:19:17.78 bitrate=N/A speed=42.3x    frame=28349 fps=1017 q=-0.0 size=N/A time=00:19:42.38 bitrate=N/A speed=42.4x    frame=28929 fps=1019 q=-0.0 size=N/A time=00:20:06.58 bitrate=N/A speed=42.5x    frame=29541 fps=1022 q=-0.0 size=N/A time=00:20:32.10 bitrate=N/A speed=42.6x    frame=30154 fps=1025 q=-0.0 size=N/A time=00:20:57.67 bitrate=N/A speed=42.8x    frame=30698 fps=1026 q=-0.0 size=N/A time=00:21:20.36 bitrate=N/A speed=42.8x    frame=31211 fps=1025 q=-0.0 size=N/A time=00:21:41.75 bitrate=N/A speed=42.8x    frame=31743 fps=1025 q=-0.0 size=N/A time=00:22:03.94 bitrate=N/A speed=42.8x    frame=32275 fps=1025 q=-0.0 size=N/A time=00:22:26.13 bitrate=N/A speed=42.8x    frame=32714 fps=1022 q=-0.0 size=N/A time=00:22:44.44 bitrate=N/A speed=42.6x    frame=33114 fps=1018 q=-0.0 size=N/A time=00:23:01.12 bitrate=N/A speed=42.5x    frame=33488 fps=1014 q=-0.0 size=N/A time=00:23:16.72 bitrate=N/A speed=42.3x    frame=33897 fps=1010 q=-0.0 size=N/A time=00:23:33.78 bitrate=N/A speed=42.1x    frame=34365 fps=1009 q=-0.0 size=N/A time=00:23:53.30 bitrate=N/A speed=42.1x    frame=34890 fps=1009 q=-0.0 size=N/A time=00:24:15.20 bitrate=N/A speed=42.1x    [Parsed_psnr_10 @ 000001e85494d380] PSNR y:48.189842 u:51.160559 v:51.249100 average:48.982546 min:36.811369 max:56.579662
[out#0/null @ 000001e854dd1900] video:15144KiB audio:275644KiB subtitle:0KiB other streams:0KiB global headers:0KiB muxing overhead: unknown
frame=35244 fps=1010 q=-0.0 Lsize=N/A time=00:24:29.96 bitrate=N/A speed=42.1x    
